<?xml version="1.0"?>
<svg xmlns="http://www.w3.org/2000/svg" xmlns:xlink="http://www.w3.org/1999/xlink" xmlns:svgjs="http://svgjs.com/svgjs" version="1.1" width="512" height="512" x="0" y="0" viewBox="0 0 511.778 511.778" style="enable-background:new 0 0 512 512" xml:space="preserve" class=""><g><script/><path xmlns="http://www.w3.org/2000/svg" d="m451.775 67.193v-29.14h-30v29.14h-60.438v-29.14h-30v29.14h-60.437v-29.14h-30v29.14h-60.437v-29.14h-30v29.14h-60.437v-29.14h-30v29.14h-60.026v406.533h511.778v-406.533zm-391.749 30v29.14h30v-29.14h60.438v29.14h30v-29.14h60.436v29.14h30v-29.14h60.437v29.14h30v-29.14h60.438v29.14h30v-29.14h30.003v69.467h-451.778v-69.467zm72.332 99.466v42.354h-42.355v-42.354zm-42.355 72.355h42.354v42.354h-42.354zm72.355 0h42.354v42.354h-42.354zm72.354 0h42.354v42.354h-42.354zm72.354 0h42.354v42.354h-42.354zm0-30v-42.354h42.354v42.354zm-30 0h-42.354v-42.354h42.354zm-72.354 0h-42.354v-42.354h42.354zm-114.709 102.354h42.354v42.354h-42.354zm72.355 0h42.354v42.354h-42.354zm72.354 0h42.354v42.354h-42.354zm72.354 0h42.354v42.354h-42.354zm72.354 0h42.354v42.354h-42.354zm42.355-30h-42.355v-42.354h42.354v42.354zm0-72.354h-42.355v-42.354h42.354v42.354zm-391.775 204.712v-247.067h30.003v217.063h391.771v-217.063h30.003v247.066h-451.777z" fill="#ff0000" data-original="#000000" style="" class=""/></g></svg>
